<?xml version="1.0" encoding="UTF-8" standalone="no"?>
<!DOCTYPE svg PUBLIC "-//W3C//DTD SVG 1.1//EN"
 "http://www.w3.org/Graphics/SVG/1.1/DTD/svg11.dtd">
<!-- Generated by graphviz version 15.0.0 (20260523.1842)
 -->
<!-- Title: G Pages: 1 -->
<svg width="1419pt" height="175pt"
 viewBox="0.00 0.00 1419.00 175.00" xmlns="http://www.w3.org/2000/svg" xmlns:xlink="http://www.w3.org/1999/xlink">
<g id="graph0" class="graph" transform="scale(1 1) rotate(0) translate(25.2 149.49)">
<title>G</title>
<polygon fill="white" stroke="none" points="-25.2,25.2 -25.2,-149.49 1393.7,-149.49 1393.7,25.2 -25.2,25.2"/>
<!-- entry&#45;&gt;api -->
<g id="edge1" class="edge">
<title>entry&#45;&gt;api</title>
<path fill="none" stroke="#637383" stroke-width="1.5" d="M219.84,-62.15C219.84,-62.15 318.36,-62.15 318.36,-62.15"/>
<polygon fill="#637383" stroke="#637383" stroke-width="1.5" points="318.36,-64.95 326.36,-62.15 318.36,-59.35 318.36,-64.95"/>
<text xml:space="preserve" text-anchor="middle" x="274.3" y="-64.45" font-family="Comic Mono" font-size="11.00">invokes</text>
</g>
<!-- api&#45;&gt;infra -->
<g id="edge2" class="edge">
<title>api&#45;&gt;infra</title>
<path fill="none" stroke="#637383" stroke-width="1.5" d="M478.02,-62.15C478.02,-62.15 654.57,-62.15 654.57,-62.15"/>
<polygon fill="#637383" stroke="#637383" stroke-width="1.5" points="654.57,-64.95 662.57,-62.15 654.57,-59.35 654.57,-64.95"/>
<text xml:space="preserve" text-anchor="middle" x="571.35" y="-64.45" font-family="Comic Mono" font-size="11.00">persists / publishes</text>
</g>
<!-- infra&#45;&gt;bt -->
<g id="edge3" class="edge">
<title>infra&#45;&gt;bt</title>
<path fill="none" stroke="#637383" stroke-width="1.5" d="M884.28,-62.15C884.28,-62.15 983.1,-62.15 983.1,-62.15"/>
<polygon fill="#637383" stroke="#637383" stroke-width="1.5" points="983.1,-64.95 991.1,-62.15 983.1,-59.35 983.1,-64.95"/>
<text xml:space="preserve" text-anchor="middle" x="938.9" y="-64.45" font-family="Comic Mono" font-size="11.00">extends</text>
</g>
<!-- bt&#45;&gt;runtime -->
<g id="edge4" class="edge">
<title>bt&#45;&gt;runtime</title>
<path fill="none" stroke="#637383" stroke-width="1.5" d="M1125.32,-62.15C1125.32,-62.15 1217.92,-62.15 1217.92,-62.15"/>
<polygon fill="#637383" stroke="#637383" stroke-width="1.5" points="1217.92,-64.95 1225.92,-62.15 1217.92,-59.35 1217.92,-64.95"/>
<text xml:space="preserve" text-anchor="middle" x="1176.7" y="-64.45" font-family="Comic Mono" font-size="11.00">adapts</text>
</g>
<!-- entry -->
<g id="node1" class="node">
<title>entry</title>
<path fill="#fff8e7" stroke="#88a3b5" stroke-width="1.4" d="M207.3,-114.16C207.3,-114.16 12,-114.16 12,-114.16 6,-114.16 0,-108.16 0,-102.16 0,-102.16 0,-22.13 0,-22.13 0,-16.12 6,-10.13 12,-10.13 12,-10.13 207.3,-10.13 207.3,-10.13 213.3,-10.13 219.3,-16.13 219.3,-22.13 219.3,-22.13 219.3,-102.16 219.3,-102.16 219.3,-108.17 213.3,-114.16 207.3,-114.16"/>
<text xml:space="preserve" text-anchor="middle" x="109.65" y="-89.35" font-family="Architects Daughter" font-size="14.00">Entry &amp; Verification</text>
<text xml:space="preserve" text-anchor="middle" x="109.65" y="-69.1" font-family="Architects Daughter" font-size="14.00">OrderApplication</text>
<text xml:space="preserve" text-anchor="middle" x="109.65" y="-48.85" font-family="Architects Daughter" font-size="14.00">ProductControllerScopeTest</text>
<text xml:space="preserve" text-anchor="middle" x="109.65" y="-28.6" font-family="Architects Daughter" font-size="14.00">Gateway Orders tests</text>
</g>
<!-- api -->
<g id="node2" class="node">
<title>api</title>
<path fill="#eef7ff" stroke="#88a3b5" stroke-width="1.4" d="M465.35,-124.29C465.35,-124.29 341.3,-124.29 341.3,-124.29 335.3,-124.29 329.3,-118.29 329.3,-112.29 329.3,-112.29 329.3,-12 329.3,-12 329.3,-6 335.3,0 341.3,0 341.3,0 465.35,0 465.35,0 471.35,0 477.35,-6 477.35,-12 477.35,-12 477.35,-112.29 477.35,-112.29 477.35,-118.29 471.35,-124.29 465.35,-124.29"/>
<text xml:space="preserve" text-anchor="middle" x="403.33" y="-99.47" font-family="Architects Daughter" font-size="14.00">API &amp; Adapters</text>
<text xml:space="preserve" text-anchor="middle" x="403.33" y="-79.22" font-family="Architects Daughter" font-size="14.00">OrderConfig</text>
<text xml:space="preserve" text-anchor="middle" x="403.33" y="-58.97" font-family="Architects Daughter" font-size="14.00">ObservationConfig</text>
<text xml:space="preserve" text-anchor="middle" x="403.33" y="-38.72" font-family="Architects Daughter" font-size="14.00">SwaggerConfig</text>
<text xml:space="preserve" text-anchor="middle" x="403.33" y="-18.47" font-family="Architects Daughter" font-size="14.00">OrderController</text>
</g>
<!-- infra -->
<g id="node3" class="node">
<title>infra</title>
<path fill="#f5f0ff" stroke="#88a3b5" stroke-width="1.4" d="M871.9,-124.29C871.9,-124.29 677.35,-124.29 677.35,-124.29 671.35,-124.29 665.35,-118.29 665.35,-112.29 665.35,-112.29 665.35,-12 665.35,-12 665.35,-6 671.35,0 677.35,0 677.35,0 871.9,0 871.9,0 877.9,0 883.9,-6 883.9,-12 883.9,-12 883.9,-112.29 883.9,-112.29 883.9,-118.29 877.9,-124.29 871.9,-124.29"/>
<text xml:space="preserve" text-anchor="middle" x="774.63" y="-99.47" font-family="Architects Daughter" font-size="14.00">Framework Layer</text>
<text xml:space="preserve" text-anchor="middle" x="774.63" y="-79.22" font-family="Architects Daughter" font-size="14.00">Spring boot autoconfigure lib</text>
<text xml:space="preserve" text-anchor="middle" x="774.63" y="-58.97" font-family="Architects Daughter" font-size="14.00">Spring boot autoconfigure</text>
<text xml:space="preserve" text-anchor="middle" x="774.63" y="-38.72" font-family="Architects Daughter" font-size="14.00">processor</text>
<text xml:space="preserve" text-anchor="middle" x="774.63" y="-18.47" font-family="Architects Daughter" font-size="14.00">Spring boot configuration</text>
</g>
<!-- bt -->
<g id="node4" class="node">
<title>bt</title>
<path fill="#eaf7f0" stroke="#88a3b5" stroke-width="1.4" d="M1112.7,-114.16C1112.7,-114.16 1005.9,-114.16 1005.9,-114.16 999.9,-114.16 993.9,-108.16 993.9,-102.16 993.9,-102.16 993.9,-22.13 993.9,-22.13 993.9,-16.12 999.9,-10.13 1005.9,-10.13 1005.9,-10.13 1112.7,-10.13 1112.7,-10.13 1118.7,-10.13 1124.7,-16.13 1124.7,-22.13 1124.7,-22.13 1124.7,-102.16 1124.7,-102.16 1124.7,-108.17 1118.7,-114.16 1112.7,-114.16"/>
<text xml:space="preserve" text-anchor="middle" x="1059.3" y="-89.35" font-family="Architects Daughter" font-size="14.00">bluetape4k APIs</text>
<text xml:space="preserve" text-anchor="middle" x="1059.3" y="-69.1" font-family="Architects Daughter" font-size="14.00">workshop</text>
<text xml:space="preserve" text-anchor="middle" x="1059.3" y="-48.85" font-family="Architects Daughter" font-size="14.00">jackson3</text>
<text xml:space="preserve" text-anchor="middle" x="1059.3" y="-28.6" font-family="Architects Daughter" font-size="14.00">idgenerators</text>
</g>
<!-- runtime -->
<g id="node5" class="node">
<title>runtime</title>
<path fill="#fff1f1" stroke="#88a3b5" stroke-width="1.4" d="M1356.5,-93.92C1356.5,-93.92 1240.7,-93.92 1240.7,-93.92 1234.7,-93.92 1228.7,-87.92 1228.7,-81.92 1228.7,-81.92 1228.7,-42.38 1228.7,-42.38 1228.7,-36.38 1234.7,-30.38 1240.7,-30.38 1240.7,-30.38 1356.5,-30.38 1356.5,-30.38 1362.5,-30.38 1368.5,-36.38 1368.5,-42.38 1368.5,-42.38 1368.5,-81.92 1368.5,-81.92 1368.5,-87.92 1362.5,-93.92 1356.5,-93.92"/>
<text xml:space="preserve" text-anchor="middle" x="1298.6" y="-69.1" font-family="Architects Daughter" font-size="14.00">Runtime</text>
<text xml:space="preserve" text-anchor="middle" x="1298.6" y="-48.85" font-family="Architects Daughter" font-size="14.00">In&#45;memory / JVM</text>
</g>
</g>
</svg>
