<?xml version="1.0" encoding="UTF-8" standalone="no"?>
<!DOCTYPE svg PUBLIC "-//W3C//DTD SVG 1.1//EN"
 "http://www.w3.org/Graphics/SVG/1.1/DTD/svg11.dtd">
<!-- Generated by graphviz version 15.0.0 (20260523.1842)
 -->
<!-- Title: G Pages: 1 -->
<svg width="1868pt" height="175pt"
 viewBox="0.00 0.00 1868.00 175.00" xmlns="http://www.w3.org/2000/svg" xmlns:xlink="http://www.w3.org/1999/xlink">
<g id="graph0" class="graph" transform="scale(1 1) rotate(0) translate(25.2 149.49)">
<title>G</title>
<polygon fill="white" stroke="none" points="-25.2,25.2 -25.2,-149.49 1843,-149.49 1843,25.2 -25.2,25.2"/>
<!-- entry&#45;&gt;api -->
<g id="edge1" class="edge">
<title>entry&#45;&gt;api</title>
<path fill="none" stroke="#637383" stroke-width="1.5" d="M244.64,-62.15C244.64,-62.15 343.09,-62.15 343.09,-62.15"/>
<polygon fill="#637383" stroke="#637383" stroke-width="1.5" points="343.09,-64.95 351.09,-62.15 343.09,-59.35 343.09,-64.95"/>
<text xml:space="preserve" text-anchor="middle" x="299.05" y="-64.45" font-family="Comic Mono" font-size="11.00">invokes</text>
</g>
<!-- api&#45;&gt;service -->
<g id="edge2" class="edge">
<title>api&#45;&gt;service</title>
<path fill="none" stroke="#637383" stroke-width="1.5" d="M603.18,-62.15C603.18,-62.15 714.06,-62.15 714.06,-62.15"/>
<polygon fill="#637383" stroke="#637383" stroke-width="1.5" points="714.06,-64.95 722.06,-62.15 714.06,-59.35 714.06,-64.95"/>
<text xml:space="preserve" text-anchor="middle" x="663.6" y="-64.45" font-family="Comic Mono" font-size="11.00">delegates</text>
</g>
<!-- service&#45;&gt;infra -->
<g id="edge3" class="edge">
<title>service&#45;&gt;infra</title>
<path fill="none" stroke="#637383" stroke-width="1.5" d="M878.52,-62.15C878.52,-62.15 1055.18,-62.15 1055.18,-62.15"/>
<polygon fill="#637383" stroke="#637383" stroke-width="1.5" points="1055.18,-64.95 1063.18,-62.15 1055.18,-59.35 1055.18,-64.95"/>
<text xml:space="preserve" text-anchor="middle" x="971.9" y="-64.45" font-family="Comic Mono" font-size="11.00">persists / publishes</text>
</g>
<!-- infra&#45;&gt;bt -->
<g id="edge4" class="edge">
<title>infra&#45;&gt;bt</title>
<path fill="none" stroke="#637383" stroke-width="1.5" d="M1296.32,-62.15C1296.32,-62.15 1395.07,-62.15 1395.07,-62.15"/>
<polygon fill="#637383" stroke="#637383" stroke-width="1.5" points="1395.07,-64.95 1403.07,-62.15 1395.07,-59.35 1395.07,-64.95"/>
<text xml:space="preserve" text-anchor="middle" x="1350.7" y="-64.45" font-family="Comic Mono" font-size="11.00">extends</text>
</g>
<!-- bt&#45;&gt;runtime -->
<g id="edge5" class="edge">
<title>bt&#45;&gt;runtime</title>
<path fill="none" stroke="#637383" stroke-width="1.5" d="M1574.35,-62.15C1574.35,-62.15 1667.19,-62.15 1667.19,-62.15"/>
<polygon fill="#637383" stroke="#637383" stroke-width="1.5" points="1667.19,-64.95 1675.19,-62.15 1667.19,-59.35 1667.19,-64.95"/>
<text xml:space="preserve" text-anchor="middle" x="1626" y="-64.45" font-family="Comic Mono" font-size="11.00">adapts</text>
</g>
<!-- entry -->
<g id="node1" class="node">
<title>entry</title>
<path fill="#fff8e7" stroke="#88a3b5" stroke-width="1.4" d="M232.05,-124.29C232.05,-124.29 12,-124.29 12,-124.29 6,-124.29 0,-118.29 0,-112.29 0,-112.29 0,-12 0,-12 0,-6 6,0 12,0 12,0 232.05,0 232.05,0 238.05,0 244.05,-6 244.05,-12 244.05,-12 244.05,-112.29 244.05,-112.29 244.05,-118.29 238.05,-124.29 232.05,-124.29"/>
<text xml:space="preserve" text-anchor="middle" x="122.03" y="-99.47" font-family="Architects Daughter" font-size="14.00">Boot App/Test Surface</text>
<text xml:space="preserve" text-anchor="middle" x="122.03" y="-79.22" font-family="Architects Daughter" font-size="14.00">WebsocketApplication</text>
<text xml:space="preserve" text-anchor="middle" x="122.03" y="-58.97" font-family="Architects Daughter" font-size="14.00">WebsocketApplicationTest</text>
<text xml:space="preserve" text-anchor="middle" x="122.03" y="-38.72" font-family="Architects Daughter" font-size="14.00">Spring Boot Webflux Websocket</text>
<text xml:space="preserve" text-anchor="middle" x="122.03" y="-18.47" font-family="Architects Daughter" font-size="14.00">tests</text>
</g>
<!-- api -->
<g id="node2" class="node">
<title>api</title>
<path fill="#eef7ff" stroke="#88a3b5" stroke-width="1.4" d="M590.6,-124.29C590.6,-124.29 366.05,-124.29 366.05,-124.29 360.05,-124.29 354.05,-118.29 354.05,-112.29 354.05,-112.29 354.05,-12 354.05,-12 354.05,-6 360.05,0 366.05,0 366.05,0 590.6,0 590.6,0 596.6,0 602.6,-6 602.6,-12 602.6,-12 602.6,-112.29 602.6,-112.29 602.6,-118.29 596.6,-124.29 590.6,-124.29"/>
<text xml:space="preserve" text-anchor="middle" x="478.33" y="-99.47" font-family="Architects Daughter" font-size="14.00">Spring Web Adapters</text>
<text xml:space="preserve" text-anchor="middle" x="478.33" y="-79.22" font-family="Architects Daughter" font-size="14.00">NettyConfig</text>
<text xml:space="preserve" text-anchor="middle" x="478.33" y="-58.97" font-family="Architects Daughter" font-size="14.00">ReactiveWebSocketConfiguration</text>
<text xml:space="preserve" text-anchor="middle" x="478.33" y="-38.72" font-family="Architects Daughter" font-size="14.00">SampleWebfluxRouter</text>
<text xml:space="preserve" text-anchor="middle" x="478.33" y="-18.47" font-family="Architects Daughter" font-size="14.00">ReactiveWebSocketHandler</text>
</g>
<!-- service -->
<g id="node3" class="node">
<title>service</title>
<path fill="#f1f8e9" stroke="#88a3b5" stroke-width="1.4" d="M865.9,-104.04C865.9,-104.04 736.6,-104.04 736.6,-104.04 730.6,-104.04 724.6,-98.04 724.6,-92.04 724.6,-92.04 724.6,-32.25 724.6,-32.25 724.6,-26.25 730.6,-20.25 736.6,-20.25 736.6,-20.25 865.9,-20.25 865.9,-20.25 871.9,-20.25 877.9,-26.25 877.9,-32.25 877.9,-32.25 877.9,-92.04 877.9,-92.04 877.9,-98.04 871.9,-104.04 865.9,-104.04"/>
<text xml:space="preserve" text-anchor="middle" x="801.25" y="-79.22" font-family="Architects Daughter" font-size="14.00">Application Feature</text>
<text xml:space="preserve" text-anchor="middle" x="801.25" y="-58.97" font-family="Architects Daughter" font-size="14.00">QuoteGenerator</text>
<text xml:space="preserve" text-anchor="middle" x="801.25" y="-38.72" font-family="Architects Daughter" font-size="14.00">Models</text>
</g>
<!-- infra -->
<g id="node4" class="node">
<title>infra</title>
<path fill="#f5f0ff" stroke="#88a3b5" stroke-width="1.4" d="M1283.7,-124.29C1283.7,-124.29 1077.9,-124.29 1077.9,-124.29 1071.9,-124.29 1065.9,-118.29 1065.9,-112.29 1065.9,-112.29 1065.9,-12 1065.9,-12 1065.9,-6 1071.9,0 1077.9,0 1077.9,0 1283.7,0 1283.7,0 1289.7,0 1295.7,-6 1295.7,-12 1295.7,-12 1295.7,-112.29 1295.7,-112.29 1295.7,-118.29 1289.7,-124.29 1283.7,-124.29"/>
<text xml:space="preserve" text-anchor="middle" x="1180.8" y="-99.47" font-family="Architects Daughter" font-size="14.00">Spring Boot Layer</text>
<text xml:space="preserve" text-anchor="middle" x="1180.8" y="-79.22" font-family="Architects Daughter" font-size="14.00">Spring cloud dependencies get</text>
<text xml:space="preserve" text-anchor="middle" x="1180.8" y="-58.97" font-family="Architects Daughter" font-size="14.00">Spring boot4 dependencies get</text>
<text xml:space="preserve" text-anchor="middle" x="1180.8" y="-38.72" font-family="Architects Daughter" font-size="14.00">Spring boot autoconfigure lib</text>
<text xml:space="preserve" text-anchor="middle" x="1180.8" y="-18.47" font-family="Architects Daughter" font-size="14.00">Spring boot autoconfigure</text>
</g>
<!-- bt -->
<g id="node5" class="node">
<title>bt</title>
<path fill="#eaf7f0" stroke="#88a3b5" stroke-width="1.4" d="M1562,-114.16C1562,-114.16 1417.7,-114.16 1417.7,-114.16 1411.7,-114.16 1405.7,-108.16 1405.7,-102.16 1405.7,-102.16 1405.7,-22.13 1405.7,-22.13 1405.7,-16.12 1411.7,-10.13 1417.7,-10.13 1417.7,-10.13 1562,-10.13 1562,-10.13 1568,-10.13 1574,-16.13 1574,-22.13 1574,-22.13 1574,-102.16 1574,-102.16 1574,-108.17 1568,-114.16 1562,-114.16"/>
<text xml:space="preserve" text-anchor="middle" x="1489.85" y="-89.35" font-family="Architects Daughter" font-size="14.00">bluetape4k Boot APIs</text>
<text xml:space="preserve" text-anchor="middle" x="1489.85" y="-69.1" font-family="Architects Daughter" font-size="14.00">workshop</text>
<text xml:space="preserve" text-anchor="middle" x="1489.85" y="-48.85" font-family="Architects Daughter" font-size="14.00">idgenerators</text>
<text xml:space="preserve" text-anchor="middle" x="1489.85" y="-28.6" font-family="Architects Daughter" font-size="14.00">junit5</text>
</g>
<!-- runtime -->
<g id="node6" class="node">
<title>runtime</title>
<path fill="#fff1f1" stroke="#88a3b5" stroke-width="1.4" d="M1805.8,-93.92C1805.8,-93.92 1690,-93.92 1690,-93.92 1684,-93.92 1678,-87.92 1678,-81.92 1678,-81.92 1678,-42.38 1678,-42.38 1678,-36.38 1684,-30.38 1690,-30.38 1690,-30.38 1805.8,-30.38 1805.8,-30.38 1811.8,-30.38 1817.8,-36.38 1817.8,-42.38 1817.8,-42.38 1817.8,-81.92 1817.8,-81.92 1817.8,-87.92 1811.8,-93.92 1805.8,-93.92"/>
<text xml:space="preserve" text-anchor="middle" x="1747.9" y="-69.1" font-family="Architects Daughter" font-size="14.00">Boot Runtime</text>
<text xml:space="preserve" text-anchor="middle" x="1747.9" y="-48.85" font-family="Architects Daughter" font-size="14.00">In&#45;memory / JVM</text>
</g>
</g>
</svg>
