<?xml version="1.0" encoding="UTF-8" standalone="no"?>
<!DOCTYPE svg PUBLIC "-//W3C//DTD SVG 1.1//EN"
 "http://www.w3.org/Graphics/SVG/1.1/DTD/svg11.dtd">
<!-- Generated by graphviz version 15.0.0 (20260523.1842)
 -->
<!-- Title: G Pages: 1 -->
<svg width="1539pt" height="146pt"
 viewBox="0.00 0.00 1539.00 146.00" xmlns="http://www.w3.org/2000/svg" xmlns:xlink="http://www.w3.org/1999/xlink">
<g id="graph0" class="graph" transform="scale(1 1) rotate(0) translate(25.2 120.6)">
<title>G</title>
<polygon fill="white" stroke="none" points="-25.2,25.2 -25.2,-120.6 1514.16,-120.6 1514.16,25.2 -25.2,25.2"/>
<!-- entry&#45;&gt;api -->
<g id="edge1" class="edge">
<title>entry&#45;&gt;api</title>
<path fill="none" stroke="#637383" stroke-width="1.5" d="M169.9,-47.7C169.9,-47.7 242.52,-47.7 242.52,-47.7"/>
<polygon fill="#637383" stroke="#637383" stroke-width="1.5" points="242.52,-50.5 250.52,-47.7 242.52,-44.9 242.52,-50.5"/>
<text xml:space="preserve" text-anchor="middle" x="211.41" y="-50" font-family="Comic Mono" font-size="11.00">calls</text>
</g>
<!-- api&#45;&gt;service -->
<g id="edge2" class="edge">
<title>api&#45;&gt;service</title>
<path fill="none" stroke="#637383" stroke-width="1.5" d="M439.24,-47.7C439.24,-47.7 505.93,-47.7 505.93,-47.7"/>
<polygon fill="#637383" stroke="#637383" stroke-width="1.5" points="505.93,-50.5 513.93,-47.7 505.93,-44.9 505.93,-50.5"/>
<text xml:space="preserve" text-anchor="middle" x="477.57" y="-50" font-family="Comic Mono" font-size="11.00">uses</text>
</g>
<!-- service&#45;&gt;infra -->
<g id="edge3" class="edge">
<title>service&#45;&gt;infra</title>
<path fill="none" stroke="#637383" stroke-width="1.5" d="M713.35,-47.7C713.35,-47.7 780.39,-47.7 780.39,-47.7"/>
<polygon fill="#637383" stroke="#637383" stroke-width="1.5" points="780.39,-50.5 788.39,-47.7 780.39,-44.9 780.39,-50.5"/>
<text xml:space="preserve" text-anchor="middle" x="751.98" y="-50" font-family="Comic Mono" font-size="11.00">uses</text>
</g>
<!-- infra&#45;&gt;bt -->
<g id="edge4" class="edge">
<title>infra&#45;&gt;bt</title>
<path fill="none" stroke="#637383" stroke-width="1.5" d="M991.45,-35.17C991.45,-35.17 1076.31,-35.17 1076.31,-35.17"/>
<polygon fill="#637383" stroke="#637383" stroke-width="1.5" points="1076.31,-37.98 1084.31,-35.18 1076.31,-32.38 1076.31,-37.98"/>
<text xml:space="preserve" text-anchor="middle" x="1039.14" y="-79" font-family="Comic Mono" font-size="11.00">uses</text>
</g>
<!-- infra&#45;&gt;bt -->
<g id="edge5" class="edge">
<title>infra&#45;&gt;bt</title>
<path fill="none" stroke="#637383" stroke-width="1.5" d="M991.45,-60.23C991.45,-60.23 1076.31,-60.23 1076.31,-60.23"/>
<polygon fill="#637383" stroke="#637383" stroke-width="1.5" points="1076.31,-63.03 1084.31,-60.23 1076.31,-57.43 1076.31,-63.03"/>
<text xml:space="preserve" text-anchor="middle" x="1039.14" y="-21" font-family="Comic Mono" font-size="11.00">extends</text>
</g>
<!-- bt&#45;&gt;runtime -->
<g id="edge6" class="edge">
<title>bt&#45;&gt;runtime</title>
<path fill="none" stroke="#637383" stroke-width="1.5" d="M1276.67,-47.7C1276.67,-47.7 1355.39,-47.7 1355.39,-47.7"/>
<polygon fill="#637383" stroke="#637383" stroke-width="1.5" points="1355.39,-50.5 1363.39,-47.7 1355.39,-44.9 1355.39,-50.5"/>
<text xml:space="preserve" text-anchor="middle" x="1321.05" y="-50" font-family="Comic Mono" font-size="11.00">adapts</text>
</g>
<!-- entry -->
<g id="node1" class="node">
<title>entry</title>
<path fill="#fff8e7" stroke="#88a3b5" stroke-width="1.4" d="M157.41,-85.28C157.41,-85.28 12,-85.28 12,-85.28 6,-85.28 0,-79.28 0,-73.28 0,-73.28 0,-22.12 0,-22.12 0,-16.12 6,-10.12 12,-10.12 12,-10.12 157.41,-10.12 157.41,-10.12 163.41,-10.12 169.41,-16.12 169.41,-22.12 169.41,-22.12 169.41,-73.28 169.41,-73.28 169.41,-79.28 163.41,-85.28 157.41,-85.28"/>
<text xml:space="preserve" text-anchor="middle" x="84.7" y="-64.78" font-family="Architects Daughter" font-size="14.00">Entry / Tests</text>
<text xml:space="preserve" text-anchor="middle" x="84.7" y="-44.53" font-family="Architects Daughter" font-size="14.00">SpringModulith /</text>
<text xml:space="preserve" text-anchor="middle" x="84.7" y="-24.28" font-family="Architects Daughter" font-size="14.00">AppRestControllerTest</text>
</g>
<!-- api -->
<g id="node2" class="node">
<title>api</title>
<path fill="#eef7ff" stroke="#88a3b5" stroke-width="1.4" d="M426.57,-95.4C426.57,-95.4 265.41,-95.4 265.41,-95.4 259.41,-95.4 253.41,-89.4 253.41,-83.4 253.41,-83.4 253.41,-12 253.41,-12 253.41,-6 259.41,0 265.41,0 265.41,0 426.57,0 426.57,0 432.57,0 438.57,-6 438.57,-12 438.57,-12 438.57,-83.4 438.57,-83.4 438.57,-89.4 432.57,-95.4 426.57,-95.4"/>
<text xml:space="preserve" text-anchor="middle" x="345.99" y="-74.9" font-family="Architects Daughter" font-size="14.00">API / Adapter</text>
<text xml:space="preserve" text-anchor="middle" x="345.99" y="-54.65" font-family="Architects Daughter" font-size="14.00">DepartmentManagement /</text>
<text xml:space="preserve" text-anchor="middle" x="345.99" y="-34.4" font-family="Architects Daughter" font-size="14.00">EmployeeManagement /</text>
<text xml:space="preserve" text-anchor="middle" x="345.99" y="-14.15" font-family="Architects Daughter" font-size="14.00">GatewayManagement</text>
</g>
<!-- service -->
<g id="node3" class="node">
<title>service</title>
<path fill="#f1f8e9" stroke="#88a3b5" stroke-width="1.4" d="M700.98,-95.4C700.98,-95.4 528.57,-95.4 528.57,-95.4 522.57,-95.4 516.57,-89.4 516.57,-83.4 516.57,-83.4 516.57,-12 516.57,-12 516.57,-6 522.57,0 528.57,0 528.57,0 700.98,0 700.98,0 706.98,0 712.98,-6 712.98,-12 712.98,-12 712.98,-83.4 712.98,-83.4 712.98,-89.4 706.98,-95.4 700.98,-95.4"/>
<text xml:space="preserve" text-anchor="middle" x="614.77" y="-74.9" font-family="Architects Daughter" font-size="14.00">Service / Domain</text>
<text xml:space="preserve" text-anchor="middle" x="614.77" y="-54.65" font-family="Architects Daughter" font-size="14.00">OrganizationAddEvent /</text>
<text xml:space="preserve" text-anchor="middle" x="614.77" y="-34.4" font-family="Architects Daughter" font-size="14.00">OrganizationRemoveEvent /</text>
<text xml:space="preserve" text-anchor="middle" x="614.77" y="-14.15" font-family="Architects Daughter" font-size="14.00">DepartmentDTO /</text>
</g>
<!-- infra -->
<g id="node4" class="node">
<title>infra</title>
<path fill="#f5f0ff" stroke="#88a3b5" stroke-width="1.4" d="M979.14,-85.28C979.14,-85.28 802.98,-85.28 802.98,-85.28 796.98,-85.28 790.98,-79.28 790.98,-73.28 790.98,-73.28 790.98,-22.12 790.98,-22.12 790.98,-16.12 796.98,-10.12 802.98,-10.12 802.98,-10.12 979.14,-10.12 979.14,-10.12 985.14,-10.12 991.14,-16.12 991.14,-22.12 991.14,-22.12 991.14,-73.28 991.14,-73.28 991.14,-79.28 985.14,-85.28 979.14,-85.28"/>
<text xml:space="preserve" text-anchor="middle" x="891.06" y="-64.78" font-family="Architects Daughter" font-size="14.00">Library Layer</text>
<text xml:space="preserve" text-anchor="middle" x="891.06" y="-44.53" font-family="Architects Daughter" font-size="14.00">hibernate / testcontainers /</text>
<text xml:space="preserve" text-anchor="middle" x="891.06" y="-24.28" font-family="Architects Daughter" font-size="14.00">coroutines</text>
</g>
<!-- bt -->
<g id="node5" class="node">
<title>bt</title>
<path fill="#eaf7f0" stroke="#88a3b5" stroke-width="1.4" d="M1264.05,-85.28C1264.05,-85.28 1099.14,-85.28 1099.14,-85.28 1093.14,-85.28 1087.14,-79.28 1087.14,-73.28 1087.14,-73.28 1087.14,-22.12 1087.14,-22.12 1087.14,-16.12 1093.14,-10.12 1099.14,-10.12 1099.14,-10.12 1264.05,-10.12 1264.05,-10.12 1270.05,-10.12 1276.05,-16.12 1276.05,-22.12 1276.05,-22.12 1276.05,-73.28 1276.05,-73.28 1276.05,-79.28 1270.05,-85.28 1264.05,-85.28"/>
<text xml:space="preserve" text-anchor="middle" x="1181.59" y="-64.78" font-family="Architects Daughter" font-size="14.00">bluetape4k APIs</text>
<text xml:space="preserve" text-anchor="middle" x="1181.59" y="-44.53" font-family="Architects Daughter" font-size="14.00">hibernate / testcontainers</text>
<text xml:space="preserve" text-anchor="middle" x="1181.59" y="-24.28" font-family="Architects Daughter" font-size="14.00">/ coroutines</text>
</g>
<!-- runtime -->
<g id="node6" class="node">
<title>runtime</title>
<path fill="#fff1f1" stroke="#88a3b5" stroke-width="1.4" d="M1476.96,-85.28C1476.96,-85.28 1378.05,-85.28 1378.05,-85.28 1372.05,-85.28 1366.05,-79.28 1366.05,-73.28 1366.05,-73.28 1366.05,-22.12 1366.05,-22.12 1366.05,-16.12 1372.05,-10.12 1378.05,-10.12 1378.05,-10.12 1476.96,-10.12 1476.96,-10.12 1482.96,-10.12 1488.96,-16.12 1488.96,-22.12 1488.96,-22.12 1488.96,-73.28 1488.96,-73.28 1488.96,-79.28 1482.96,-85.28 1476.96,-85.28"/>
<text xml:space="preserve" text-anchor="middle" x="1427.5" y="-64.78" font-family="Architects Daughter" font-size="14.00">Runtime</text>
<text xml:space="preserve" text-anchor="middle" x="1427.5" y="-44.53" font-family="Architects Daughter" font-size="14.00">SQL / R2DBC /</text>
<text xml:space="preserve" text-anchor="middle" x="1427.5" y="-24.28" font-family="Architects Daughter" font-size="14.00">Testcontainers</text>
</g>
</g>
</svg>
